<svg xmlns="http://www.w3.org/2000/svg" style="display: none;">
  <symbol id="icon-logo" viewBox="0 0 32 32">
    <title>logo</title>
    <path fill="#4895d9" style="fill: var(--color1, #4895d9)" d="M4.501 27.126c-2.376-2.585-4.256-5.94-4.501-10.438 0-0.437 0-0.875 0-1.312 0.096-1.9 0.581-3.621 1.188-5.188 0.787-2.031 2.002-3.972 3.438-5.187-0.001 0.971 0.024 1.899 0.124 2.5 0.304 1.823 1.32 3.82 2.563 5.062 1.007 1.007 2.357 1.698 3.75 2.437 2.78 1.475 5.424 2.778 8.187 4.249 1.778 0.948 3.608 2.119 4.125 4.001 0.732 2.661-0.82 5.129-2.063 6.437-1.145 1.207-2.647 2.033-4.437 2.313-0.708 0-1.416 0-2.125 0-4.389-0.491-7.864-2.279-10.25-4.874zM15.063 11.063c2.562 1.343 5.208 2.705 7.813 4.062 1.342 0.7 2.563 1.423 3.499 2.437 1.705 1.847 2.769 4.257 2.562 7.75 0.422-0.408 0.805-0.977 1.124-1.563 0.929-1.7 1.682-3.867 1.876-6.375-0.010-0.073 0.012-0.111 0.062-0.125 0-0.834 0-1.667 0-2.5-1.101-8.792-7.083-14.072-15.5-14.75-0.271 0-0.541 0-0.813 0-1.644 0.275-3.247 0.745-4.187 1.813-0.661 0.749-1.181 2.080-1.251 2.937-0.295 3.677 2.34 5.016 4.813 6.313z"></path>
  </symbol>
  <symbol id="icon-spinner" viewBox="0 0 32 32">
    <title>spinner</title>
    <path d="M5.778 23.704l0.024 0.033 0.025 0.031 0.381 0.478 0.027 0.030 0.401 0.454 0.028 0.029 0.42 0.429 0.030 0.027 0.437 0.405 0.031 0.026 0.454 0.38 0.032 0.024 0.438 0.332 0.032 0.024 0.033 0.022 0.484 0.33 0.033 0.020 0.498 0.305 0.034 0.018 0.476 0.26 0.034 0.018 0.556 0.27 0.035 0.015 0.532 0.227 0.036 0.014 0.541 0.2 0.037 0.012 0.549 0.174 0.037 0.010 0.556 0.148 0.038 0.008 0.563 0.12 0.606 0.1 0.038 0.005 0.572 0.067 0.038 0.003 0.576 0.039 0.038 0 0.577 0.012 0.039-0.001 0.578-0.016 0.617-0.047 0.039-0.004 0.577-0.072 0.039-0.007 0.575-0.101 0.039-0.009 0.572-0.129 0.038-0.010 0.568-0.158 0.038-0.013 0.562-0.187 0.037-0.015 0.556-0.216 0.036-0.016 0.548-0.245 0.036-0.018 0.539-0.275 0.035-0.020 0.529-0.304 0.034-0.022 0.519-0.334 0.033-0.024 0.501-0.36 0.031-0.025 0.478-0.381 0.030-0.027 0.454-0.401 0.029-0.028 0.429-0.42 0.027-0.030 0.405-0.437 0.026-0.031 0.38-0.454 0.024-0.032 0.332-0.438 0.024-0.032 0.022-0.033 0.33-0.484 0.020-0.033 0.305-0.498 0.018-0.034 0.26-0.476 0.018-0.034 0.017-0.035 0.253-0.521 0.015-0.035 0.212-0.496 0.015-0.036 0.014-0.036 0.187-0.505 0.014-0.036 0.012-0.037 0.163-0.513 0.011-0.037 0.010-0.037 0.138-0.519 0.010-0.037 0.008-0.038 0.12-0.563 0.006-0.038 0.088-0.53 0.006-0.038 0.005-0.038 0.062-0.534 0.005-0.038 0.003-0.038 0.037-0.537 0.002-0.039 0-0.038 0.011-0.539 0-0.038-0.001-0.039-0.015-0.54-0.001-0.038-0.003-0.039-0.041-0.539-0.003-0.039-0.004-0.039-0.068-0.538-0.004-0.039-0.007-0.039-0.094-0.536-0.007-0.039-0.009-0.039-0.12-0.533-0.009-0.039-0.010-0.038-0.148-0.529-0.010-0.038-0.013-0.037-0.174-0.524-0.012-0.038-0.015-0.037-0.202-0.518-0.014-0.037-0.016-0.036-0.229-0.512-0.016-0.036-0.018-0.036-0.275-0.539-0.020-0.035-0.304-0.529-0.022-0.034-0.312-0.484-0.022-0.034-0.024-0.033-0.336-0.468-0.024-0.033-0.025-0.031-0.381-0.478-0.027-0.030-0.401-0.454-0.028-0.029-0.42-0.429-0.030-0.027-0.437-0.405-0.031-0.026-0.454-0.38-0.032-0.024-0.438-0.332-0.032-0.024-0.033-0.022-0.484-0.33-0.033-0.020-0.498-0.305-0.034-0.018-0.476-0.26-0.034-0.018-0.556-0.27-0.035-0.015-0.532-0.227-0.036-0.014-0.541-0.2-0.037-0.012-0.549-0.174-0.037-0.010-0.556-0.148-0.038-0.008-0.563-0.12-0.606-0.1-0.038-0.005-0.572-0.067-0.038-0.003-0.576-0.039-0.038-0.001-0.577-0.012-0.039 0.001-0.578 0.016-0.617 0.047-0.039 0.004-0.577 0.072-0.039 0.007-0.575 0.101-0.039 0.009-0.572 0.129-0.038 0.010-0.568 0.158-0.037 0.013-0.562 0.187-0.037 0.015-0.556 0.216-0.036 0.016-0.548 0.245-0.036 0.018-0.539 0.275-0.035 0.020-0.529 0.304-0.034 0.022-0.484 0.312 1.733 2.69 0.446-0.287 0.43-0.247 0.427-0.218 0.447-0.2 0.44-0.17 0.438-0.146 0.457-0.127 0.466-0.106 0.456-0.079 0.458-0.058 0.476-0.035 0.451-0.012 0.458 0.009 0.468 0.033 0.447 0.052 0.462 0.076 0.457 0.099 0.435 0.116 0.447 0.141 0.43 0.16 0.415 0.177 0.43 0.208 0.405 0.222 0.395 0.241 0.395 0.269 0.378 0.286 0.354 0.297 0.347 0.32 0.342 0.35 0.318 0.359 0.309 0.388 0.285 0.398 0.266 0.411 0.247 0.43 0.218 0.427 0.2 0.447 0.171 0.44 0.146 0.438 0.127 0.457 0.106 0.466 0.079 0.456 0.058 0.458 0.035 0.476 0.012 0.451-0.009 0.458-0.033 0.468-0.052 0.447-0.076 0.462-0.099 0.457-0.116 0.435-0.141 0.447-0.16 0.43-0.177 0.415-0.208 0.43-0.222 0.405-0.241 0.395-0.269 0.395-0.286 0.378-0.297 0.354-0.32 0.347-0.35 0.342-0.359 0.318-0.388 0.309-0.398 0.285-0.411 0.266-0.43 0.247-0.427 0.218-0.447 0.2-0.44 0.171-0.438 0.146-0.457 0.127-0.466 0.106-0.456 0.079-0.458 0.058-0.476 0.035-0.451 0.012-0.458-0.009-0.467-0.033-0.447-0.052-0.461-0.076-0.457-0.099-0.435-0.116-0.447-0.141-0.43-0.16-0.415-0.177-0.43-0.208-0.405-0.222-0.396-0.241-0.395-0.269-0.378-0.286-0.354-0.297-0.347-0.32-0.342-0.35-0.318-0.359-0.309-0.388-0.308-0.429-2.599 1.867z"></path>
  </symbol>
</svg>
